<?xml version="1.0" encoding="UTF-8" standalone="no" ?>
<!DOCTYPE svg PUBLIC "-//W3C//DTD SVG 1.1//EN" "http://www.w3.org/Graphics/SVG/1.1/DTD/svg11.dtd">
<svg xmlns="http://www.w3.org/2000/svg" xmlns:xlink="http://www.w3.org/1999/xlink" version="1.1" width="1080" height="1080" viewBox="0 0 1080 1080" xml:space="preserve">
<desc>Created with Fabric.js 5.2.4</desc>
<defs>
</defs>
<rect x="0" y="0" width="100%" height="100%" fill="transparent"></rect>
<g transform="matrix(1 0 0 1 540 540)" id="cd1a048c-d298-4c60-b0b7-14538fae7d24"  >
<rect style="stroke: none; stroke-width: 1; stroke-dasharray: none; stroke-linecap: butt; stroke-dashoffset: 0; stroke-linejoin: miter; stroke-miterlimit: 4; fill: rgb(255,255,255); fill-rule: nonzero; opacity: 1; visibility: hidden;" vector-effect="non-scaling-stroke"  x="-540" y="-540" rx="0" ry="0" width="1080" height="1080" />
</g>
<g transform="matrix(1 0 0 1 540 540)" id="28927ff9-f03e-4f51-89f6-e14c7d7eddd4"  >
</g>
<g transform="matrix(3.96 0 0 3.96 521.16 521.37)"  >
<g style="" vector-effect="non-scaling-stroke"   >
		<g transform="matrix(0.13 0 0 -0.13 -95.38 -0.02)"  >
<path style="stroke: none; stroke-width: 1; stroke-dasharray: none; stroke-linecap: butt; stroke-dashoffset: 0; stroke-linejoin: miter; stroke-miterlimit: 4; fill: rgb(0,0,0); fill-rule: nonzero; opacity: 1;" vector-effect="non-scaling-stroke"  transform=" translate(-756.74, -1476.2)" d="M 749 1681 C 730 1666 726 1652 724 1591 C 721 1512 716 1498 693 1502 C 683 1504 677 1496 674 1478 C 672 1455 675 1450 695 1450 C 716 1450 718 1446 722 1375 C 726 1289 741 1266 803 1256 C 839 1249 840 1250 840 1279 C 840 1302 835 1309 818 1312 C 797 1315 794 1322 790 1383 C 786 1436 780 1455 765 1466 C 746 1480 746 1480 768 1496 C 787 1509 790 1520 790 1575 C 790 1636 792 1640 815 1646 C 833 1650 840 1659 840 1676 C 840 1697 835 1700 806 1700 C 787 1700 762 1692 749 1681 z" stroke-linecap="round" />
</g>
		<g transform="matrix(0.13 0 0 -0.13 -58.35 0)"  >
<path style="stroke: none; stroke-width: 1; stroke-dasharray: none; stroke-linecap: butt; stroke-dashoffset: 0; stroke-linejoin: miter; stroke-miterlimit: 4; fill: rgb(0,0,0); fill-rule: nonzero; opacity: 1;" vector-effect="non-scaling-stroke"  transform=" translate(-1034.45, -1476.03)" d="M 950 1670 C 950 1645 954 1641 973 1643 C 994 1645 995 1641 998 1580 C 1000 1528 1005 1511 1022 1497 C 1042 1480 1043 1479 1024 1466 C 1010 1455 1004 1435 1000 1383 C 996 1322 993 1315 973 1312 C 955 1309 950 1302 950 1279 C 950 1250 952 1249 983 1255 C 1059 1270 1060 1271 1069 1375 C 1074 1438 1077 1445 1098 1448 C 1117 1451 1121 1457 1118 1478 C 1116 1497 1109 1505 1095 1505 C 1077 1505 1074 1514 1069 1584 C 1063 1674 1044 1700 984 1700 C 953 1700 950 1697 950 1670 z" stroke-linecap="round" />
</g>
		<g transform="matrix(0.13 0 0 -0.13 -77.23 0.17)"  >
<path style="stroke: none; stroke-width: 1; stroke-dasharray: none; stroke-linecap: butt; stroke-dashoffset: 0; stroke-linejoin: miter; stroke-miterlimit: 4; fill: rgb(0,0,0); fill-rule: nonzero; opacity: 1;" vector-effect="non-scaling-stroke"  transform=" translate(-892.9, -1474.77)" d="M 876 1506 C 808 1379 800 1359 823 1379 C 843 1395 850 1383 843 1346 C 840 1329 840 1317 842 1320 C 853 1330 928 1469 962 1543 C 979 1580 979 1580 959 1569 C 940 1559 939 1561 946 1594 C 949 1614 950 1630 947 1630 C 944 1630 912 1574 876 1506 z" stroke-linecap="round" />
</g>
		<g transform="matrix(0.13 0 0 -0.13 35.05 9.68)"  >
<path style="stroke: none; stroke-width: 1; stroke-dasharray: none; stroke-linecap: butt; stroke-dashoffset: 0; stroke-linejoin: miter; stroke-miterlimit: 4; fill: rgb(0,0,0); fill-rule: nonzero; opacity: 1;" vector-effect="non-scaling-stroke"  transform=" translate(-1735, -1403.45)" d="M 1743 1500 C 1731 1495 1718 1479 1714 1465 C 1710 1449 1701 1440 1689 1440 C 1679 1440 1670 1436 1670 1430 C 1670 1425 1679 1420 1690 1420 C 1708 1420 1710 1413 1710 1360 C 1710 1313 1713 1300 1725 1300 C 1737 1300 1740 1313 1740 1360 C 1740 1420 1740 1420 1770 1420 C 1787 1420 1800 1425 1800 1430 C 1800 1436 1786 1440 1769 1440 C 1745 1440 1739 1444 1742 1458 C 1744 1468 1756 1476 1773 1478 C 1789 1480 1800 1486 1797 1493 C 1792 1509 1771 1511 1743 1500 z" stroke-linecap="round" />
</g>
		<g transform="matrix(0.13 0 0 -0.13 56.5 10)"  >
<path style="stroke: none; stroke-width: 1; stroke-dasharray: none; stroke-linecap: butt; stroke-dashoffset: 0; stroke-linejoin: miter; stroke-miterlimit: 4; fill: rgb(0,0,0); fill-rule: nonzero; opacity: 1;" vector-effect="non-scaling-stroke"  transform=" translate(-1895.88, -1401)" d="M 1835 1402 L 1835 1303 L 1880 1302 C 1905 1302 1931 1306 1937 1312 C 1959 1330 1964 1388 1945 1416 C 1931 1438 1923 1441 1895 1437 C 1862 1432 1862 1432 1867 1466 C 1872 1495 1870 1500 1854 1500 C 1837 1500 1835 1491 1835 1402 z M 1920 1401 C 1934 1374 1933 1354 1915 1336 C 1891 1312 1870 1327 1870 1369 C 1870 1390 1873 1410 1877 1413 C 1889 1426 1909 1420 1920 1401 z" stroke-linecap="round" />
</g>
		<g transform="matrix(0.13 0 0 -0.13 78.28 -0.67)"  >
<path style="stroke: none; stroke-width: 1; stroke-dasharray: none; stroke-linecap: butt; stroke-dashoffset: 0; stroke-linejoin: miter; stroke-miterlimit: 4; fill: rgb(0,0,0); fill-rule: nonzero; opacity: 1;" vector-effect="non-scaling-stroke"  transform=" translate(-2059.19, -1481.07)" d="M 2044 1489 C 2034 1472 2057 1453 2071 1467 C 2083 1479 2075 1500 2060 1500 C 2055 1500 2048 1495 2044 1489 z" stroke-linecap="round" />
</g>
		<g transform="matrix(0.13 0 0 -0.13 -27.61 10.8)"  >
<path style="stroke: none; stroke-width: 1; stroke-dasharray: none; stroke-linecap: butt; stroke-dashoffset: 0; stroke-linejoin: miter; stroke-miterlimit: 4; fill: rgb(0,0,0); fill-rule: nonzero; opacity: 1;" vector-effect="non-scaling-stroke"  transform=" translate(-1265, -1395)" d="M 1200 1395 C 1200 1309 1202 1300 1219 1300 C 1234 1300 1237 1307 1236 1336 C 1235 1370 1237 1372 1269 1375 C 1307 1378 1330 1401 1330 1436 C 1330 1468 1294 1490 1243 1490 L 1200 1490 L 1200 1395 z M 1284 1457 C 1313 1436 1300 1406 1262 1402 C 1233 1399 1230 1401 1230 1428 C 1230 1472 1249 1482 1284 1457 z" stroke-linecap="round" />
</g>
		<g transform="matrix(0.13 0 0 -0.13 98.44 11.47)"  >
<path style="stroke: none; stroke-width: 1; stroke-dasharray: none; stroke-linecap: butt; stroke-dashoffset: 0; stroke-linejoin: miter; stroke-miterlimit: 4; fill: rgb(0,0,0); fill-rule: nonzero; opacity: 1;" vector-effect="non-scaling-stroke"  transform=" translate(-2210.36, -1390)" d="M 2180 1460 C 2180 1449 2173 1440 2165 1440 C 2157 1440 2150 1436 2150 1430 C 2150 1425 2157 1420 2165 1420 C 2176 1420 2180 1409 2180 1379 C 2180 1320 2194 1300 2235 1300 C 2278 1300 2284 1327 2243 1332 C 2218 1335 2215 1339 2212 1378 C 2209 1419 2210 1420 2239 1420 C 2256 1420 2270 1425 2270 1430 C 2270 1436 2257 1440 2240 1440 C 2217 1440 2210 1444 2210 1460 C 2210 1471 2203 1480 2195 1480 C 2187 1480 2180 1471 2180 1460 z" stroke-linecap="round" />
</g>
		<g transform="matrix(0.13 0 0 -0.13 -6.93 14.08)"  >
<path style="stroke: none; stroke-width: 1; stroke-dasharray: none; stroke-linecap: butt; stroke-dashoffset: 0; stroke-linejoin: miter; stroke-miterlimit: 4; fill: rgb(0,0,0); fill-rule: nonzero; opacity: 1;" vector-effect="non-scaling-stroke"  transform=" translate(-1420.12, -1370.46)" d="M 1377 1422 C 1354 1397 1355 1337 1378 1317 C 1400 1297 1453 1295 1469 1313 C 1485 1333 1472 1340 1444 1328 C 1423 1318 1416 1320 1397 1338 L 1376 1360 L 1428 1360 C 1474 1360 1480 1362 1480 1381 C 1480 1392 1475 1410 1470 1421 C 1456 1446 1399 1447 1377 1422 z M 1448 1398 C 1451 1384 1445 1380 1421 1380 C 1392 1380 1380 1397 1397 1414 C 1410 1427 1445 1415 1448 1398 z" stroke-linecap="round" />
</g>
		<g transform="matrix(0.13 0 0 -0.13 15.72 14.26)"  >
<path style="stroke: none; stroke-width: 1; stroke-dasharray: none; stroke-linecap: butt; stroke-dashoffset: 0; stroke-linejoin: miter; stroke-miterlimit: 4; fill: rgb(0,0,0); fill-rule: nonzero; opacity: 1;" vector-effect="non-scaling-stroke"  transform=" translate(-1590, -1369.07)" d="M 1540 1368 C 1540 1315 1543 1300 1554 1300 C 1565 1300 1570 1315 1572 1353 C 1575 1404 1576 1405 1608 1408 C 1627 1410 1640 1417 1640 1425 C 1640 1435 1626 1439 1590 1438 L 1540 1437 L 1540 1368 z" stroke-linecap="round" />
</g>
		<g transform="matrix(0.13 0 0 -0.13 78.39 14.14)"  >
<path style="stroke: none; stroke-width: 1; stroke-dasharray: none; stroke-linecap: butt; stroke-dashoffset: 0; stroke-linejoin: miter; stroke-miterlimit: 4; fill: rgb(0,0,0); fill-rule: nonzero; opacity: 1;" vector-effect="non-scaling-stroke"  transform=" translate(-2060, -1370)" d="M 2000 1427 C 2000 1419 2010 1414 2021 1414 C 2039 1415 2043 1409 2044 1372 C 2045 1335 2043 1330 2023 1330 C 2009 1330 2000 1324 2000 1315 C 2000 1303 2013 1300 2060 1300 C 2107 1300 2120 1303 2120 1315 C 2120 1325 2110 1330 2094 1330 C 2068 1330 2068 1331 2073 1385 L 2078 1440 L 2039 1440 C 2013 1440 2000 1435 2000 1427 z" stroke-linecap="round" />
</g>
</g>
</g>
</svg>