<svg version="1.1" id="Layer_1" xmlns="http://www.w3.org/2000/svg" xmlns:xlink="http://www.w3.org/1999/xlink" x="0px" y="0px"
	 width="100%" viewBox="0 0 500 500" enable-background="new 0 0 500 500" xml:space="preserve">
<path fill="#FFFFFF" opacity="1.000000" stroke="none" 
	d="
M461.000000,501.000000 
	C307.333374,501.000000 154.166733,501.000000 1.000082,501.000000 
	C1.000055,334.333405 1.000055,167.666824 1.000027,1.000172 
	C167.666550,1.000114 334.333099,1.000114 500.999756,1.000057 
	C500.999817,167.666519 500.999817,334.333038 500.999908,500.999756 
	C487.833344,501.000000 474.666656,501.000000 461.000000,501.000000 
M158.848709,227.422775 
	C154.232178,235.992447 149.686127,244.601089 144.977188,253.119690 
	C141.091507,260.148987 137.013062,267.071716 132.964447,273.114349 
	C132.777176,266.165558 134.678284,258.472168 125.363831,254.590500 
	C131.138519,252.506531 132.952850,248.701553 132.940811,243.756439 
	C132.935150,241.428253 132.953506,239.100021 132.954361,236.771820 
	C132.957596,227.942627 132.956573,227.942627 140.990570,226.041962 
	C140.990570,223.312332 140.990570,220.601379 140.990570,217.820435 
	C138.609146,217.820435 136.614059,217.727783 134.629990,217.836411 
	C125.840477,218.317673 122.148277,222.045837 121.743179,230.947815 
	C121.584557,234.433441 121.673325,237.930664 121.663033,241.422653 
	C121.639511,249.408600 121.642921,249.408615 113.818481,250.563080 
	C113.738503,251.819092 113.594498,253.123917 113.588539,254.429367 
	C113.581879,255.887085 113.700562,257.345367 113.761818,258.738190 
	C121.652985,260.217865 121.633400,260.217957 121.669998,268.563721 
	C121.687492,272.553070 121.608948,276.555969 121.905205,280.528015 
	C122.376808,286.851074 125.349716,290.216522 131.616989,291.365784 
	C134.638321,291.919830 137.784790,291.791565 141.110046,291.986023 
	C141.110046,288.572876 141.110046,285.779785 141.585922,282.519440 
	C148.091141,270.272522 154.525238,257.986969 161.147949,245.803909 
	C162.969391,242.453186 165.354355,239.408768 167.531662,237.119095 
	C167.777969,243.723175 165.985992,251.060471 174.857956,254.834396 
	C168.868271,257.289429 167.370010,261.604553 167.462723,266.802887 
	C167.501312,268.966217 167.461197,271.130951 167.458984,273.295044 
	C167.450104,281.994385 167.450409,281.994385 159.405167,283.515717 
	C159.405167,286.266266 159.405167,288.987122 159.405167,291.863190 
	C161.769714,291.863190 163.760254,291.963959 165.737701,291.845795 
	C174.365570,291.330200 178.420898,287.278656 178.836472,278.686310 
	C178.989120,275.530334 178.892654,272.361938 178.895187,269.199188 
	C178.902054,260.632416 178.898926,260.632416 186.560593,258.626984 
	C186.560593,255.833008 186.560593,253.083252 186.560593,250.379333 
	C178.981552,249.652512 178.915070,249.579987 178.897980,242.137451 
	C178.891479,239.307480 178.908905,236.477402 178.893600,233.647507 
	C178.823166,220.625519 172.339615,215.580399 159.232300,218.370331 
	C159.232300,221.178177 159.232300,223.993271 158.848709,227.422775 
M307.049133,282.988251 
	C311.675354,283.328857 316.314209,284.000793 320.920807,283.825745 
	C322.478729,283.766541 324.331268,281.824646 325.396240,280.290039 
	C328.248322,276.180206 327.898590,267.435333 324.943939,263.691620 
	C321.445801,259.259216 317.017242,259.640686 311.878052,262.061890 
	C311.878052,258.093628 311.878052,254.694778 311.878052,250.946625 
	C309.971222,251.104279 308.586700,251.218750 306.946991,251.354309 
	C306.946991,261.844543 306.946991,271.963745 307.049133,282.988251 
M222.924240,262.484314 
	C221.480484,253.489700 213.165359,249.932983 201.728699,253.423264 
	C201.728699,263.501465 201.728699,273.579681 201.728699,283.759094 
	C203.505203,283.759094 204.939194,283.759094 206.981430,283.759094 
	C206.981430,279.804291 206.981430,276.073029 206.981430,272.172180 
	C214.296204,272.040161 221.374069,272.334198 222.924240,262.484314 
M242.274658,283.945923 
	C244.078140,282.908844 245.881607,281.871765 247.685089,280.834656 
	C247.552383,280.163422 247.419693,279.492188 247.286987,278.820923 
	C245.727661,278.923492 243.998840,278.625031 242.639053,279.199707 
	C237.427582,281.402283 234.202240,279.969818 232.503235,273.898560 
	C237.706207,273.898560 242.768555,273.898560 247.831879,273.898560 
	C248.497070,268.143768 247.456329,263.678223 242.277527,261.198975 
	C238.073456,259.186401 233.132172,260.284302 229.948822,263.759308 
	C226.639664,267.371674 225.806625,274.416412 228.173828,278.769653 
	C230.571548,283.179077 235.314255,285.072998 242.274658,283.945923 
M299.057983,254.672134 
	C299.897339,253.775375 300.736694,252.878616 301.576050,251.981857 
	C300.721100,251.373978 299.941223,250.415649 298.999298,250.213852 
	C291.681030,248.646088 287.833008,251.504120 285.380554,260.216522 
	C283.677094,260.476990 281.937561,260.742981 280.248993,261.001160 
	C278.991943,266.645111 283.941406,263.786865 286.077209,265.846954 
	C286.077209,271.414093 286.077209,277.504211 286.077209,284.013489 
	C288.161346,283.897278 289.692078,283.811920 291.669434,283.701630 
	C291.669434,277.293793 291.669434,271.359711 291.669434,265.540527 
	C299.827606,263.839142 299.827606,263.839142 299.217224,260.807617 
	C296.816650,260.600555 294.399750,260.392059 291.973969,260.182800 
	C291.305176,254.590057 294.670166,254.470047 299.057983,254.672134 
M365.279114,279.905334 
	C368.349182,284.422791 373.250153,286.069519 377.710876,283.751221 
	C378.671997,283.251709 379.010101,281.553406 379.911621,279.900421 
	C369.601776,280.180328 367.542023,276.321350 370.798920,265.057770 
	C378.754608,264.376984 378.754608,264.376984 377.922455,260.498535 
	C375.551453,260.498535 373.098236,260.498535 370.487457,260.498535 
	C370.141449,258.590179 369.855347,257.012115 369.536957,255.256165 
	C367.944275,255.256165 366.508606,255.256165 365.072937,255.256165 
	C365.341461,255.590744 365.609985,255.925308 365.878510,256.259888 
	C363.981537,258.142120 362.084534,260.024323 360.187561,261.906555 
	C357.452484,266.353302 362.988342,263.800446 364.243286,265.718719 
	C364.514313,270.200134 364.784454,274.667267 365.279114,279.905334 
M345.889984,260.759857 
	C343.066162,260.703369 340.199707,260.340820 337.437439,260.725922 
	C336.151886,260.905121 335.068604,262.535217 333.893616,263.507599 
	C334.225861,263.931061 334.558075,264.354492 334.890320,264.777954 
	C336.973541,264.976196 339.056793,265.174408 341.111572,265.369934 
	C341.111572,270.169678 341.111572,274.581787 341.111572,279.102081 
	C339.797577,279.295685 338.739563,279.236938 337.887512,279.627502 
	C336.615082,280.210785 335.487671,281.110535 334.298584,281.875641 
	C335.490417,282.588989 336.650421,283.845520 337.879791,283.917511 
	C342.189789,284.169830 346.525177,283.942444 350.847900,284.036560 
	C354.171143,284.108917 354.354370,282.487244 353.354095,279.849304 
	C351.348602,279.647186 349.399048,279.450714 346.626984,279.171356 
	C346.626984,273.116608 346.626984,267.170807 345.889984,260.759857 
M269.743042,260.183502 
	C265.839508,262.545715 261.617950,261.147308 257.351562,260.578522 
	C257.351562,268.612793 257.351562,276.007660 257.351562,283.705444 
	C259.112366,283.705444 260.647980,283.705444 262.665375,283.705444 
	C262.665375,279.480835 262.704498,275.528625 262.654388,271.577545 
	C262.604187,267.618958 264.685425,265.832306 268.453766,265.713318 
	C270.073120,265.662170 271.695465,265.704742 273.363617,265.704742 
	C274.398956,262.623962 274.877045,260.148041 269.743042,260.183502 
M345.289398,252.138702 
	C342.720856,251.819931 340.799438,252.593018 341.487579,255.506546 
	C341.693390,256.377960 343.885406,257.584808 344.808411,257.331207 
	C347.562378,256.574585 347.786163,254.638260 345.289398,252.138702 
z"/>
<path fill="#3A4584" opacity="1.000000" stroke="none" 
	d="
M141.110046,282.986694 
	C141.110046,285.779785 141.110046,288.572876 141.110046,291.986023 
	C137.784790,291.791565 134.638321,291.919830 131.616989,291.365784 
	C125.349716,290.216522 122.376808,286.851074 121.905205,280.528015 
	C121.608948,276.555969 121.687492,272.553070 121.669998,268.563721 
	C121.633400,260.217957 121.652985,260.217865 113.761818,258.738190 
	C113.700562,257.345367 113.581879,255.887085 113.588539,254.429367 
	C113.594498,253.123917 113.738503,251.819092 113.818481,250.563080 
	C121.642921,249.408615 121.639511,249.408600 121.663033,241.422653 
	C121.673325,237.930664 121.584557,234.433441 121.743179,230.947815 
	C122.148277,222.045837 125.840477,218.317673 134.629990,217.836411 
	C136.614059,217.727783 138.609146,217.820435 140.990570,217.820435 
	C140.990570,220.601379 140.990570,223.312332 140.990570,226.041962 
	C132.956573,227.942627 132.957596,227.942627 132.954361,236.771820 
	C132.953506,239.100021 132.935150,241.428253 132.940811,243.756439 
	C132.952850,248.701553 131.138519,252.506531 125.363831,254.590500 
	C134.678284,258.472168 132.777176,266.165558 132.926544,273.998474 
	C133.170975,282.437134 133.550873,282.811584 141.110046,282.986694 
z"/>
<path fill="#3B4685" opacity="1.000000" stroke="none" 
	d="
M159.232300,226.808350 
	C159.232300,223.993271 159.232300,221.178177 159.232300,218.370331 
	C172.339615,215.580399 178.823166,220.625519 178.893600,233.647507 
	C178.908905,236.477402 178.891479,239.307480 178.897980,242.137451 
	C178.915070,249.579987 178.981552,249.652512 186.560593,250.379333 
	C186.560593,253.083252 186.560593,255.833008 186.560593,258.626984 
	C178.898926,260.632416 178.902054,260.632416 178.895187,269.199188 
	C178.892654,272.361938 178.989120,275.530334 178.836472,278.686310 
	C178.420898,287.278656 174.365570,291.330200 165.737701,291.845795 
	C163.760254,291.963959 161.769714,291.863190 159.405167,291.863190 
	C159.405167,288.987122 159.405167,286.266266 159.405167,283.515717 
	C167.450409,281.994385 167.450104,281.994385 167.458984,273.295044 
	C167.461197,271.130951 167.501312,268.966217 167.462723,266.802887 
	C167.370010,261.604553 168.868271,257.289429 174.857956,254.834396 
	C165.985992,251.060471 167.777969,243.723175 167.659149,236.287231 
	C166.443787,226.950912 166.443787,226.950912 159.232300,226.808350 
z"/>
<path fill="#979EE7" opacity="1.000000" stroke="none" 
	d="
M159.040497,227.115570 
	C166.443787,226.950912 166.443787,226.950912 167.633682,235.839569 
	C165.354355,239.408768 162.969391,242.453186 161.147949,245.803909 
	C154.525238,257.986969 148.091141,270.272522 141.347992,282.753052 
	C133.550873,282.811584 133.170975,282.437134 132.954346,274.462158 
	C137.013062,267.071716 141.091507,260.148987 144.977188,253.119690 
	C149.686127,244.601089 154.232178,235.992447 159.040497,227.115570 
z"/>
<path fill="#7078C7" opacity="1.000000" stroke="none" 
	d="
M306.998047,282.535583 
	C306.946991,271.963745 306.946991,261.844543 306.946991,251.354309 
	C308.586700,251.218750 309.971222,251.104279 311.878052,250.946625 
	C311.878052,254.694778 311.878052,258.093628 311.878052,262.061890 
	C317.017242,259.640686 321.445801,259.259216 324.943939,263.691620 
	C327.898590,267.435333 328.248322,276.180206 325.396240,280.290039 
	C324.331268,281.824646 322.478729,283.766541 320.920807,283.825745 
	C316.314209,284.000793 311.675354,283.328857 306.998047,282.535583 
M312.089447,268.095062 
	C312.065765,270.591614 311.553009,273.220520 312.181030,275.540680 
	C312.641327,277.241180 314.439667,279.502136 315.932739,279.748413 
	C317.515778,280.009521 320.110321,278.612335 321.041595,277.157501 
	C322.080933,275.533722 322.260986,272.928619 321.867340,270.938019 
	C321.458862,268.872681 320.285095,265.877502 318.772766,265.393738 
	C317.005310,264.828400 314.509766,266.539429 312.089447,268.095062 
z"/>
<path fill="#7078C7" opacity="1.000000" stroke="none" 
	d="
M222.909912,262.881287 
	C221.374069,272.334198 214.296204,272.040161 206.981430,272.172180 
	C206.981430,276.073029 206.981430,279.804291 206.981430,283.759094 
	C204.939194,283.759094 203.505203,283.759094 201.728699,283.759094 
	C201.728699,273.579681 201.728699,263.501465 201.731171,253.421753 
	C213.165359,249.932983 221.480484,253.489700 222.909912,262.881287 
M207.677078,257.181183 
	C207.356125,260.645813 207.035172,264.110413 206.685486,267.885254 
	C209.143250,267.885254 210.628235,267.979095 212.097305,267.866058 
	C215.324509,267.617737 217.589859,265.914276 217.605881,262.623505 
	C217.622375,259.236877 215.718948,257.052277 212.040970,256.975006 
	C210.882294,256.950653 209.722305,256.990082 207.677078,257.181183 
z"/>
<path fill="#737AC8" opacity="1.000000" stroke="none" 
	d="
M241.899307,284.023346 
	C235.314255,285.072998 230.571548,283.179077 228.173828,278.769653 
	C225.806625,274.416412 226.639664,267.371674 229.948822,263.759308 
	C233.132172,260.284302 238.073456,259.186401 242.277527,261.198975 
	C247.456329,263.678223 248.497070,268.143768 247.831879,273.898560 
	C242.768555,273.898560 237.706207,273.898560 232.503235,273.898560 
	C234.202240,279.969818 237.427582,281.402283 242.639053,279.199707 
	C243.998840,278.625031 245.727661,278.923492 247.286987,278.820923 
	C247.419693,279.492188 247.552383,280.163422 247.685089,280.834656 
	C245.881607,281.871765 244.078140,282.908844 241.899307,284.023346 
M240.099716,270.084442 
	C241.952484,270.124207 243.943405,269.728363 242.199432,267.517792 
	C241.099319,266.123383 238.671646,264.804352 237.073563,265.039886 
	C235.372879,265.290497 233.948380,267.414978 232.403290,268.721313 
	C232.727097,269.176270 233.050903,269.631256 233.374695,270.086212 
	C235.326172,270.086212 237.277634,270.086212 240.099716,270.084442 
z"/>
<path fill="#737AC8" opacity="1.000000" stroke="none" 
	d="
M298.639099,254.623352 
	C294.670166,254.470047 291.305176,254.590057 291.973969,260.182800 
	C294.399750,260.392059 296.816650,260.600555 299.217224,260.807617 
	C299.827606,263.839142 299.827606,263.839142 291.669434,265.540527 
	C291.669434,271.359711 291.669434,277.293793 291.669434,283.701630 
	C289.692078,283.811920 288.161346,283.897278 286.077209,284.013489 
	C286.077209,277.504211 286.077209,271.414093 286.077209,265.846954 
	C283.941406,263.786865 278.991943,266.645111 280.248993,261.001160 
	C281.937561,260.742981 283.677094,260.476990 285.380554,260.216522 
	C287.833008,251.504120 291.681030,248.646088 298.999298,250.213852 
	C299.941223,250.415649 300.721100,251.373978 301.576050,251.981857 
	C300.736694,252.878616 299.897339,253.775375 298.639099,254.623352 
z"/>
<path fill="#737AC8" opacity="1.000000" stroke="none" 
	d="
M365.166870,279.519836 
	C364.784454,274.667267 364.514313,270.200134 364.243286,265.718719 
	C362.988342,263.800446 357.452484,266.353302 360.187561,261.906555 
	C362.084534,260.024323 363.981537,258.142120 365.878510,256.259888 
	C365.609985,255.925308 365.341461,255.590744 365.072937,255.256165 
	C366.508606,255.256165 367.944275,255.256165 369.536957,255.256165 
	C369.855347,257.012115 370.141449,258.590179 370.487457,260.498535 
	C373.098236,260.498535 375.551453,260.498535 377.922455,260.498535 
	C378.754608,264.376984 378.754608,264.376984 370.798920,265.057770 
	C367.542023,276.321350 369.601776,280.180328 379.911621,279.900421 
	C379.010101,281.553406 378.671997,283.251709 377.710876,283.751221 
	C373.250153,286.069519 368.349182,284.422791 365.166870,279.519836 
z"/>
<path fill="#7078C7" opacity="1.000000" stroke="none" 
	d="
M346.258484,260.992432 
	C346.626984,267.170807 346.626984,273.116608 346.626984,279.171356 
	C349.399048,279.450714 351.348602,279.647186 353.354095,279.849304 
	C354.354370,282.487244 354.171143,284.108917 350.847900,284.036560 
	C346.525177,283.942444 342.189789,284.169830 337.879791,283.917511 
	C336.650421,283.845520 335.490417,282.588989 334.298584,281.875641 
	C335.487671,281.110535 336.615082,280.210785 337.887512,279.627502 
	C338.739563,279.236938 339.797577,279.295685 341.111572,279.102081 
	C341.111572,274.581787 341.111572,270.169678 341.111572,265.369934 
	C339.056793,265.174408 336.973541,264.976196 334.890320,264.777954 
	C334.558075,264.354492 334.225861,263.931061 333.893616,263.507599 
	C335.068604,262.535217 336.151886,260.905121 337.437439,260.725922 
	C340.199707,260.340820 343.066162,260.703369 346.258484,260.992432 
z"/>
<path fill="#737AC8" opacity="1.000000" stroke="none" 
	d="
M270.156189,260.181152 
	C274.877045,260.148041 274.398956,262.623962 273.363617,265.704742 
	C271.695465,265.704742 270.073120,265.662170 268.453766,265.713318 
	C264.685425,265.832306 262.604187,267.618958 262.654388,271.577545 
	C262.704498,275.528625 262.665375,279.480835 262.665375,283.705444 
	C260.647980,283.705444 259.112366,283.705444 257.351562,283.705444 
	C257.351562,276.007660 257.351562,268.612793 257.351562,260.578522 
	C261.617950,261.147308 265.839508,262.545715 270.156189,260.181152 
z"/>
<path fill="#737AC8" opacity="1.000000" stroke="none" 
	d="
M345.632446,252.309250 
	C347.786163,254.638260 347.562378,256.574585 344.808411,257.331207 
	C343.885406,257.584808 341.693390,256.377960 341.487579,255.506546 
	C340.799438,252.593018 342.720856,251.819931 345.632446,252.309250 
z"/>
<path fill="#FAFAFD" opacity="1.000000" stroke="none" 
	d="
M312.209778,267.678955 
	C314.509766,266.539429 317.005310,264.828400 318.772766,265.393738 
	C320.285095,265.877502 321.458862,268.872681 321.867340,270.938019 
	C322.260986,272.928619 322.080933,275.533722 321.041595,277.157501 
	C320.110321,278.612335 317.515778,280.009521 315.932739,279.748413 
	C314.439667,279.502136 312.641327,277.241180 312.181030,275.540680 
	C311.553009,273.220520 312.065765,270.591614 312.209778,267.678955 
z"/>
<path fill="#FAFAFD" opacity="1.000000" stroke="none" 
	d="
M208.119995,257.090759 
	C209.722305,256.990082 210.882294,256.950653 212.040970,256.975006 
	C215.718948,257.052277 217.622375,259.236877 217.605881,262.623505 
	C217.589859,265.914276 215.324509,267.617737 212.097305,267.866058 
	C210.628235,267.979095 209.143250,267.885254 206.685486,267.885254 
	C207.035172,264.110413 207.356125,260.645813 208.119995,257.090759 
z"/>
<path fill="#FAFAFD" opacity="1.000000" stroke="none" 
	d="
M239.664398,270.085327 
	C237.277634,270.086212 235.326172,270.086212 233.374695,270.086212 
	C233.050903,269.631256 232.727097,269.176270 232.403290,268.721313 
	C233.948380,267.414978 235.372879,265.290497 237.073563,265.039886 
	C238.671646,264.804352 241.099319,266.123383 242.199432,267.517792 
	C243.943405,269.728363 241.952484,270.124207 239.664398,270.085327 
z"/>
</svg>