<?xml version="1.0" standalone="no"?>
<!DOCTYPE svg PUBLIC "-//W3C//DTD SVG 20010904//EN"
 "http://www.w3.org/TR/2001/REC-SVG-20010904/DTD/svg10.dtd">
<svg version="1.0" xmlns="http://www.w3.org/2000/svg"
 width="300.000000pt" height="300.000000pt" viewBox="0 0 300.000000 300.000000"
 preserveAspectRatio="xMidYMid meet">
<metadata>
Created by potrace 1.10, written by Peter Selinger 2001-2011
</metadata>
<g transform="translate(0.000000,300.000000) scale(0.100000,-0.100000)"
fill="#000000" stroke="none">
<path d="M749 1681 c-19 -15 -23 -29 -25 -90 -3 -79 -8 -93 -31 -89 -10 2 -16
-6 -19 -24 -2 -23 1 -28 21 -28 21 0 23 -4 27 -75 4 -86 19 -109 81 -119 36
-7 37 -6 37 23 0 23 -5 30 -22 33 -21 3 -24 10 -28 71 -4 53 -10 72 -25 83
-19 14 -19 14 3 30 19 13 22 24 22 79 0 61 2 65 25 71 18 4 25 13 25 30 0 21
-5 24 -34 24 -19 0 -44 -8 -57 -19z"/>
<path d="M950 1670 c0 -25 4 -29 23 -27 21 2 22 -2 25 -63 2 -52 7 -69 24 -83
20 -17 21 -18 2 -31 -14 -11 -20 -31 -24 -83 -4 -61 -7 -68 -27 -71 -18 -3
-23 -10 -23 -33 0 -29 2 -30 33 -24 76 15 77 16 86 120 5 63 8 70 29 73 19 3
23 9 20 30 -2 19 -9 27 -23 27 -18 0 -21 9 -26 79 -6 90 -25 116 -85 116 -31
0 -34 -3 -34 -30z"/>
<path d="M876 1506 c-68 -127 -76 -147 -53 -127 20 16 27 4 20 -33 -3 -17 -3
-29 -1 -26 11 10 86 149 120 223 17 37 17 37 -3 26 -19 -10 -20 -8 -13 25 3
20 4 36 1 36 -3 0 -35 -56 -71 -124z"/>
<path d="M1743 1500 c-12 -5 -25 -21 -29 -35 -4 -16 -13 -25 -25 -25 -10 0
-19 -4 -19 -10 0 -5 9 -10 20 -10 18 0 20 -7 20 -60 0 -47 3 -60 15 -60 12 0
15 13 15 60 0 60 0 60 30 60 17 0 30 5 30 10 0 6 -14 10 -31 10 -24 0 -30 4
-27 18 2 10 14 18 31 20 16 2 27 8 24 15 -5 16 -26 18 -54 7z"/>
<path d="M1835 1402 l0 -99 45 -1 c25 0 51 4 57 10 22 18 27 76 8 104 -14 22
-22 25 -50 21 -33 -5 -33 -5 -28 29 5 29 3 34 -13 34 -17 0 -19 -9 -19 -98z
m85 -1 c14 -27 13 -47 -5 -65 -24 -24 -45 -9 -45 33 0 21 3 41 7 44 12 13 32
7 43 -12z"/>
<path d="M2044 1489 c-10 -17 13 -36 27 -22 12 12 4 33 -11 33 -5 0 -12 -5
-16 -11z"/>
<path d="M1200 1395 c0 -86 2 -95 19 -95 15 0 18 7 17 36 -1 34 1 36 33 39 38
3 61 26 61 61 0 32 -36 54 -87 54 l-43 0 0 -95z m84 62 c29 -21 16 -51 -22
-55 -29 -3 -32 -1 -32 26 0 44 19 54 54 29z"/>
<path d="M2180 1460 c0 -11 -7 -20 -15 -20 -8 0 -15 -4 -15 -10 0 -5 7 -10 15
-10 11 0 15 -11 15 -41 0 -59 14 -79 55 -79 43 0 49 27 8 32 -25 3 -28 7 -31
46 -3 41 -2 42 27 42 17 0 31 5 31 10 0 6 -13 10 -30 10 -23 0 -30 4 -30 20 0
11 -7 20 -15 20 -8 0 -15 -9 -15 -20z"/>
<path d="M1377 1422 c-23 -25 -22 -85 1 -105 22 -20 75 -22 91 -4 16 20 3 27
-25 15 -21 -10 -28 -8 -47 10 l-21 22 52 0 c46 0 52 2 52 21 0 11 -5 29 -10
40 -14 25 -71 26 -93 1z m71 -24 c3 -14 -3 -18 -27 -18 -29 0 -41 17 -24 34
13 13 48 1 51 -16z"/>
<path d="M1540 1368 c0 -53 3 -68 14 -68 11 0 16 15 18 53 3 51 4 52 36 55 19
2 32 9 32 17 0 10 -14 14 -50 13 l-50 -1 0 -69z"/>
<path d="M2000 1427 c0 -8 10 -13 21 -13 18 1 22 -5 23 -42 1 -37 -1 -42 -21
-42 -14 0 -23 -6 -23 -15 0 -12 13 -15 60 -15 47 0 60 3 60 15 0 10 -10 15
-26 15 -26 0 -26 1 -21 55 l5 55 -39 0 c-26 0 -39 -5 -39 -13z"/>
</g>
</svg>
