<svg version="1.1" id="Layer_1" xmlns="http://www.w3.org/2000/svg" xmlns:xlink="http://www.w3.org/1999/xlink" x="0px" y="0px"
	 width="100%" viewBox="0 0 500 500" enable-background="new 0 0 500 500" xml:space="preserve">
<path fill="#FFFFFF" opacity="1.000000" stroke="none" 
	d="
M232.000000,501.000000 
	C154.666687,501.000000 77.833366,501.000000 1.000041,501.000000 
	C1.000027,334.333405 1.000027,167.666779 1.000014,1.000131 
	C167.666565,1.000087 334.333130,1.000087 500.999756,1.000044 
	C500.999847,167.666519 500.999847,334.333038 500.999939,500.999786 
	C411.500000,501.000000 322.000000,501.000000 232.000000,501.000000 
M186.973846,340.953857 
	C186.658203,326.641754 186.881561,312.291443 185.871445,298.028534 
	C184.910507,284.460022 177.639893,274.819244 164.700531,269.737579 
	C163.240005,269.164001 162.160202,267.620941 160.903854,266.527466 
	C162.238205,265.516083 163.438004,264.199860 164.928406,263.542023 
	C175.851852,258.720642 183.302292,250.976395 185.316513,238.934662 
	C186.246109,233.377167 186.744293,227.695587 186.837433,222.060349 
	C187.065948,208.237747 186.789429,194.406860 187.011063,180.584045 
	C187.217743,167.691772 192.944489,162.210632 205.856506,162.015625 
	C209.939804,161.953934 214.024857,162.005997 218.018890,162.005997 
	C218.018890,150.647018 218.018890,140.043625 218.018890,128.381027 
	C205.646439,129.075089 193.426376,128.810043 181.532288,130.650986 
	C163.766861,133.400650 151.308640,143.413116 147.260406,161.671738 
	C145.831940,168.114594 145.274628,174.848602 145.156204,181.464661 
	C144.855148,198.284195 145.159882,215.113739 144.963654,231.936264 
	C144.826508,243.694107 140.218216,248.545853 128.479980,249.569580 
	C124.220070,249.941086 119.900558,249.629333 115.356239,249.629333 
	C115.356239,261.188507 115.356239,272.090851 115.356239,283.965363 
	C120.811775,283.965363 126.123169,283.654144 131.383087,284.041656 
	C138.461243,284.563141 142.810394,288.390350 144.072128,295.309418 
	C144.870422,299.687073 144.942734,304.226440 145.029770,308.699341 
	C145.392487,327.339203 144.993393,346.020996 146.137115,364.609680 
	C146.991653,378.498535 153.216751,390.210907 165.982040,397.338776 
	C182.477783,406.549561 200.426407,403.715271 218.267929,404.118896 
	C218.267929,393.576447 218.304855,383.755219 218.210663,373.935303 
	C218.201279,372.956055 217.393951,371.984467 217.028122,370.290680 
	C217.440063,369.383911 217.802383,368.450592 218.271027,367.574188 
	C243.913895,319.618042 269.533142,271.649261 295.239410,223.727142 
	C301.668488,211.741928 308.380554,199.908524 315.061066,188.937592 
	C315.385315,204.585236 315.140625,220.271805 316.208038,235.868591 
	C317.115051,249.121048 324.901306,258.140015 337.032715,263.484772 
	C338.615784,264.182251 339.829254,265.718597 341.213928,266.866394 
	C339.854553,267.889679 338.634430,269.244629 337.113495,269.883179 
	C326.037872,274.533112 318.705414,282.356903 316.656281,294.372375 
	C315.708984,299.927094 315.253357,305.617432 315.160858,311.255920 
	C314.931244,325.249664 315.204163,339.251862 314.960541,353.245178 
	C314.751770,365.236084 309.514252,370.433472 297.496582,371.022125 
	C293.070190,371.238922 288.624268,371.057129 284.264160,371.057129 
	C284.264160,382.546356 284.264160,393.272614 284.264160,403.876892 
	C294.143921,403.876892 303.673553,404.432526 313.115479,403.759003 
	C331.650391,402.436829 346.849304,395.253265 353.310974,376.362854 
	C355.534760,369.861755 356.606934,362.717163 356.813049,355.824951 
	C357.315918,339.009247 356.977386,322.169098 357.048767,305.339111 
	C357.060730,302.521912 357.183685,299.662292 357.678680,296.898041 
	C359.224854,288.263123 363.433258,284.417297 372.114838,283.891510 
	C376.888031,283.602417 381.693115,283.839783 386.635712,283.839783 
	C386.635712,272.079468 386.635712,261.173401 386.635712,249.662216 
	C382.241547,249.662216 378.090149,249.942673 373.988647,249.609268 
	C361.979187,248.633041 357.359344,243.805283 357.114746,231.760498 
	C356.888092,220.600296 357.156647,209.430664 356.986389,198.268539 
	C356.829041,187.953857 357.064636,177.565781 355.904572,167.348846 
	C353.932831,149.982803 344.829559,137.769058 327.663879,132.276596 
	C313.384735,127.707733 298.761047,129.275894 283.901093,129.039902 
	C283.901093,140.380005 283.901093,151.182983 283.351898,162.381531 
	C259.352600,207.298004 235.374207,252.225677 211.342209,297.124664 
	C203.339844,312.075439 195.200119,326.952759 186.973846,340.953857 
z"/>
<path fill="#374283" opacity="1.000000" stroke="none" 
	d="
M283.901093,161.985962 
	C283.901093,151.182983 283.901093,140.380005 283.901093,129.039902 
	C298.761047,129.275894 313.384735,127.707733 327.663879,132.276596 
	C344.829559,137.769058 353.932831,149.982803 355.904572,167.348846 
	C357.064636,177.565781 356.829041,187.953857 356.986389,198.268539 
	C357.156647,209.430664 356.888092,220.600296 357.114746,231.760498 
	C357.359344,243.805283 361.979187,248.633041 373.988647,249.609268 
	C378.090149,249.942673 382.241547,249.662216 386.635712,249.662216 
	C386.635712,261.173401 386.635712,272.079468 386.635712,283.839783 
	C381.693115,283.839783 376.888031,283.602417 372.114838,283.891510 
	C363.433258,284.417297 359.224854,288.263123 357.678680,296.898041 
	C357.183685,299.662292 357.060730,302.521912 357.048767,305.339111 
	C356.977386,322.169098 357.315918,339.009247 356.813049,355.824951 
	C356.606934,362.717163 355.534760,369.861755 353.310974,376.362854 
	C346.849304,395.253265 331.650391,402.436829 313.115479,403.759003 
	C303.673553,404.432526 294.143921,403.876892 284.264160,403.876892 
	C284.264160,393.272614 284.264160,382.546356 284.264160,371.057129 
	C288.624268,371.057129 293.070190,371.238922 297.496582,371.022125 
	C309.514252,370.433472 314.751770,365.236084 314.960541,353.245178 
	C315.204163,339.251862 314.931244,325.249664 315.160858,311.255920 
	C315.253357,305.617432 315.708984,299.927094 316.656281,294.372375 
	C318.705414,282.356903 326.037872,274.533112 337.113495,269.883179 
	C338.634430,269.244629 339.854553,267.889679 341.213928,266.866394 
	C339.829254,265.718597 338.615784,264.182251 337.032715,263.484772 
	C324.901306,258.140015 317.115051,249.121048 316.208038,235.868591 
	C315.140625,220.271805 315.385315,204.585236 315.087433,188.015747 
	C315.064178,184.279953 315.132355,181.458084 314.943787,178.653458 
	C314.251709,168.361038 308.926239,162.805267 298.797089,162.128098 
	C293.850708,161.797409 288.867584,162.016006 283.901093,161.985962 
z"/>
<path fill="#374283" opacity="1.000000" stroke="none" 
	d="
M216.956970,371.009308 
	C217.393951,371.984467 218.201279,372.956055 218.210663,373.935303 
	C218.304855,383.755219 218.267929,393.576447 218.267929,404.118896 
	C200.426407,403.715271 182.477783,406.549561 165.982040,397.338776 
	C153.216751,390.210907 146.991653,378.498535 146.137115,364.609680 
	C144.993393,346.020996 145.392487,327.339203 145.029770,308.699341 
	C144.942734,304.226440 144.870422,299.687073 144.072128,295.309418 
	C142.810394,288.390350 138.461243,284.563141 131.383087,284.041656 
	C126.123169,283.654144 120.811775,283.965363 115.356239,283.965363 
	C115.356239,272.090851 115.356239,261.188507 115.356239,249.629333 
	C119.900558,249.629333 124.220070,249.941086 128.479980,249.569580 
	C140.218216,248.545853 144.826508,243.694107 144.963654,231.936264 
	C145.159882,215.113739 144.855148,198.284195 145.156204,181.464661 
	C145.274628,174.848602 145.831940,168.114594 147.260406,161.671738 
	C151.308640,143.413116 163.766861,133.400650 181.532288,130.650986 
	C193.426376,128.810043 205.646439,129.075089 218.018890,128.381027 
	C218.018890,140.043625 218.018890,150.647018 218.018890,162.005997 
	C214.024857,162.005997 209.939804,161.953934 205.856506,162.015625 
	C192.944489,162.210632 187.217743,167.691772 187.011063,180.584045 
	C186.789429,194.406860 187.065948,208.237747 186.837433,222.060349 
	C186.744293,227.695587 186.246109,233.377167 185.316513,238.934662 
	C183.302292,250.976395 175.851852,258.720642 164.928406,263.542023 
	C163.438004,264.199860 162.238205,265.516083 160.903854,266.527466 
	C162.160202,267.620941 163.240005,269.164001 164.700531,269.737579 
	C177.639893,274.819244 184.910507,284.460022 185.871445,298.028534 
	C186.881561,312.291443 186.658203,326.641754 186.958099,341.878784 
	C186.962219,346.459045 186.904572,350.116699 187.016495,353.769165 
	C187.350159,364.657745 192.768768,370.369293 203.509857,370.950714 
	C207.980179,371.192688 212.473892,371.002808 216.956970,371.009308 
z"/>
<path fill="#969DE8" opacity="1.000000" stroke="none" 
	d="
M216.992554,370.649994 
	C212.473892,371.002808 207.980179,371.192688 203.509857,370.950714 
	C192.768768,370.369293 187.350159,364.657745 187.016495,353.769165 
	C186.904572,350.116699 186.962219,346.459045 187.032776,342.333710 
	C195.200119,326.952759 203.339844,312.075439 211.342209,297.124664 
	C235.374207,252.225677 259.352600,207.298004 283.626495,162.183746 
	C288.867584,162.016006 293.850708,161.797409 298.797089,162.128098 
	C308.926239,162.805267 314.251709,168.361038 314.943787,178.653458 
	C315.132355,181.458084 315.064178,184.279953 315.038177,187.549622 
	C308.380554,199.908524 301.668488,211.741928 295.239410,223.727142 
	C269.533142,271.649261 243.913895,319.618042 218.271027,367.574188 
	C217.802383,368.450592 217.440063,369.383911 216.992554,370.649994 
z"/>
</svg>