<?xml version="1.0" standalone="no"?>
<!DOCTYPE svg PUBLIC "-//W3C//DTD SVG 20010904//EN"
 "http://www.w3.org/TR/2001/REC-SVG-20010904/DTD/svg10.dtd">
<svg version="1.0" xmlns="http://www.w3.org/2000/svg"
 width="300.000000pt" height="300.000000pt" viewBox="0 0 300.000000 300.000000"
 preserveAspectRatio="xMidYMid meet">
<metadata>
Created by potrace 1.10, written by Peter Selinger 2001-2011
</metadata>
<g transform="translate(0.000000,300.000000) scale(0.100000,-0.100000)"
fill="#000000" stroke="none">
<path d="M1057 2216 c-70 -19 -127 -63 -156 -121 -25 -48 -26 -57 -31 -285 -4
-162 -10 -242 -19 -258 -16 -30 -50 -42 -114 -42 l-52 0 2 -102 1 -101 55 -2
c62 -3 91 -16 109 -48 9 -15 14 -97 18 -257 l5 -235 29 -52 c51 -92 146 -133
311 -133 l90 0 -3 100 -3 100 -60 0 c-73 0 -105 19 -119 69 -5 20 -10 117 -10
216 0 153 -3 186 -19 220 -20 45 -70 92 -107 101 -36 9 -29 26 22 54 26 13 58
41 73 64 25 39 26 44 31 251 7 270 8 271 138 277 l54 3 1 98 2 97 -100 -1
c-55 0 -122 -6 -148 -13z m207 -42 c10 -27 7 -81 -6 -91 -7 -6 -30 -13 -52
-16 -46 -7 -80 -28 -103 -64 -15 -23 -19 -59 -24 -228 -6 -229 -12 -252 -84
-301 -80 -54 -81 -81 -4 -130 76 -48 85 -80 93 -345 3 -80 9 -157 15 -171 13
-35 56 -66 100 -74 74 -12 72 -10 69 -72 l-3 -57 -100 0 c-108 1 -155 16 -202
67 -50 54 -57 88 -61 323 -4 221 -9 254 -46 290 -16 15 -66 34 -101 37 -30 3
-30 4 -30 62 l0 59 53 12 c53 12 84 33 105 70 8 13 14 104 18 250 6 251 11
275 69 333 42 43 100 60 201 61 71 1 88 -2 93 -15z"/>
<path d="M1700 2132 l0 -100 58 1 c64 0 95 -12 114 -46 9 -15 14 -91 18 -233
5 -207 5 -211 31 -250 15 -23 47 -51 73 -64 50 -27 58 -45 24 -55 -41 -13 -90
-57 -109 -99 -16 -35 -19 -67 -19 -208 0 -205 -10 -263 -50 -283 -16 -8 -54
-15 -85 -15 l-55 0 0 -101 0 -102 113 6 c130 6 190 24 239 71 72 70 87 141 88
419 0 175 0 178 25 202 23 24 40 28 113 29 l34 1 1 102 2 101 -69 4 c-105 6
-103 1 -108 275 -6 246 -12 282 -65 351 -15 20 -50 46 -82 60 -48 23 -73 27
-173 30 l-118 4 0 -100z m239 48 c59 -16 103 -51 130 -105 25 -48 26 -56 29
-260 1 -115 7 -227 12 -247 13 -45 58 -85 108 -94 53 -9 62 -20 62 -75 0 -52
5 -48 -76 -64 -32 -7 -75 -45 -90 -80 -9 -23 -14 -90 -14 -233 -2 -218 -9
-262 -54 -318 -45 -57 -97 -77 -208 -82 -78 -3 -98 -2 -99 9 -5 47 -5 89 0 97
3 4 31 14 62 21 105 22 119 56 119 280 0 210 12 258 73 302 65 46 77 58 77 74
0 18 -58 75 -76 75 -6 0 -24 21 -39 46 -29 50 -32 73 -39 284 -5 187 -29 236
-118 247 -24 3 -48 10 -55 15 -12 9 -12 96 0 115 7 12 146 7 196 -7z"/>
<path d="M1668 1980 c-42 -74 -518 -968 -525 -987 -6 -16 -5 -16 10 -5 14 12
63 97 162 287 18 33 53 98 79 145 26 47 54 101 64 120 9 19 19 37 22 40 3 3
20 34 38 70 17 36 45 88 62 115 16 28 39 70 50 95 12 25 26 54 33 65 29 52 38
76 35 87 -3 7 -16 -8 -30 -32z"/>
<path d="M1839 1842 c-7 -9 -20 -28 -27 -42 -7 -14 -24 -45 -38 -70 -14 -25
-49 -90 -78 -145 -57 -109 -132 -249 -179 -335 -133 -246 -227 -431 -227 -446
0 -17 1 -17 13 1 14 21 483 898 531 993 28 56 30 74 5 44z"/>
</g>
</svg>
